<?xml version="1.0" encoding="UTF-8"?> <svg xmlns="http://www.w3.org/2000/svg" xmlns:xlink="http://www.w3.org/1999/xlink" width="189.213" height="39.995" viewBox="0 0 189.213 39.995"><defs><clipPath id="clip-path"><rect id="Rectangle_2" data-name="Rectangle 2" width="189.213" height="39.995" transform="translate(0 0.001)" fill="none"></rect></clipPath></defs><g id="Group_2" data-name="Group 2" transform="translate(0 -0.001)"><g id="Group_1" data-name="Group 1" clip-path="url(#clip-path)"><path id="Path_1" data-name="Path 1" d="M155.279,4.321h4.278V0h-4.278Zm24.757,18.441c-3.847-1.183-7.408-2.245-7.408-5v-.12c0-2.414,2.175-4.225,5.568-4.225a16.192,16.192,0,0,1,8.507,2.8l1.936-3.259a19.587,19.587,0,0,0-10.347-3.21c-5.664,0-9.8,3.306-9.8,8.3v.12c0,5.335,4.994,6.9,9.511,8.207,3.775,1.063,7.169,2.2,7.169,5.117v.122c0,2.8-2.51,4.609-5.95,4.609a16.743,16.743,0,0,1-9.965-3.717l-2.175,3.09a19.723,19.723,0,0,0,11.9,4.272c5.735,0,10.227-3.211,10.227-8.714v-.12c.048-5.19-4.731-6.952-9.176-8.279M155.279,39.319h4.278V9.221h-4.278Zm-14.624,0h4.278V0h-4.278ZM109.9,23.2c.549-5.672,4.349-9.9,9.343-9.9,5.735,0,8.723,4.611,9.177,9.9Zm9.439-13.541c-7.957,0-13.788,6.734-13.788,15.158,0,9.052,6.452,15.159,14.338,15.159a14.806,14.806,0,0,0,11.853-5.456L129.065,32.1a11.884,11.884,0,0,1-9.057,4.1c-5.066,0-9.511-3.548-10.132-9.824h22.8c.048-.507.048-.965.048-1.352.024-8.52-4.851-15.375-13.382-15.375m-31.4,24.716L78.261,10.283H73.53L85.979,39.561h3.776l12.522-29.278H97.665Zm-32.6,1.763c-6.07,0-10.634-5.045-10.634-11.345s4.278-11.295,10.515-11.295c6.07,0,10.681,5.044,10.681,11.392,0,6.227-4.348,11.248-10.562,11.248m0-26.479A14.973,14.973,0,0,0,40.337,24.886,14.821,14.821,0,0,0,55.248,40a15.035,15.035,0,0,0,15.08-15.23A14.9,14.9,0,0,0,55.344,9.655M28.652,31.523,4.11,0H0V39.319H4.278V7.072L29.416,39.319H32.93V0H28.652Z" fill="#c5d801"></path></g></g></svg> 